HIERARCHY
ROOT SpineBase
{
  OFFSET 0.000000 0.000000 0.000000
  CHANNELS 6 Xposition Yposition Zposition Zrotation Xrotation Yrotation
  JOINT SpineMid
  {
    OFFSET 0.000000 32.217504 0.000000
    CHANNELS 3 Zrotation Xrotation Yrotation
    JOINT SpineShoulder
    {
      OFFSET -0.125610 23.914593 -0.783359
      CHANNELS 3 Zrotation Xrotation Yrotation
      JOINT Neck
      {
        OFFSET -0.094932 7.905306 -0.581401
        CHANNELS 3 Zrotation Xrotation Yrotation
        JOINT Head
        {
          OFFSET 1.309019 15.650290 -3.299675
          CHANNELS 3 Zrotation Xrotation Yrotation
          End Site
          {
            OFFSET 0 0 0
          }
        }
      }
      JOINT ShoulderLeft
      {
        OFFSET -18.252982 -4.002744 -2.107937
        CHANNELS 3 Zrotation Xrotation Yrotation
        JOINT ElbowLeft
        {
          OFFSET -4.640527 -28.052191 -0.309346
          CHANNELS 3 Zrotation Xrotation Yrotation
          JOINT WristLeft
          {
            OFFSET -0.981167 -23.346971 -7.546095
            CHANNELS 3 Zrotation Xrotation Yrotation
            JOINT HandLeft
            {
              OFFSET 1.377754 -7.503333 -1.934698
              CHANNELS 3 Zrotation Xrotation Yrotation
              JOINT HandTipLeft
              {
                OFFSET -0.110283 -7.237826 -1.088742
                CHANNELS 3 Zrotation Xrotation Yrotation
                End Site
                {
                  OFFSET 0 0 0
                }
              }
              JOINT ThumbLeft
              {
                OFFSET 3.631876 -0.051499 -1.954444
                CHANNELS 3 Zrotation Xrotation Yrotation
                End Site
                {
                  OFFSET 0 0 0
                }
              }
            }
          }
        }
      }
      JOINT ShoulderRight
      {
        OFFSET 16.470159 -5.703129 2.537190
        CHANNELS 3 Zrotation Xrotation Yrotation
        JOINT ElbowRight
        {
          OFFSET -0.794090 -31.248694 -4.121995
          CHANNELS 3 Zrotation Xrotation Yrotation
          JOINT WristRight
          {
            OFFSET 2.372365 -24.530664 -3.656340
            CHANNELS 3 Zrotation Xrotation Yrotation
            JOINT HandRight
            {
              OFFSET -1.091125 -4.431486 1.536014
              CHANNELS 3 Zrotation Xrotation Yrotation
              JOINT HandTipRight
              {
                OFFSET 0.620553 -6.356140 -0.330079
                CHANNELS 3 Zrotation Xrotation Yrotation
                End Site
                {
                  OFFSET 0 0 0
                }
              }
              JOINT ThumbRight
              {
                OFFSET -3.709069 -0.269133 -4.166664
                CHANNELS 3 Zrotation Xrotation Yrotation
                End Site
                {
                  OFFSET 0 0 0
                }
              }
            }
          }
        }
      }
    }
  }
  JOINT HipLeft
  {
    OFFSET -7.657786 1.150338 -4.272768
    CHANNELS 3 Zrotation Xrotation Yrotation
    JOINT KneeLeft
    {
      OFFSET -6.081782 -39.871601 -0.700758
      CHANNELS 3 Zrotation Xrotation Yrotation
      JOINT AnkleLeft
      {
        OFFSET -1.451597 -34.744805 7.511473
        CHANNELS 3 Zrotation Xrotation Yrotation
        JOINT FootLeft
        {
          OFFSET 0.319623 -8.717462 -5.226519
          CHANNELS 3 Zrotation Xrotation Yrotation
          End Site
          {
            OFFSET 0 0 0
          }
        }
      }
    }
  }
  JOINT HipRight
  {
    OFFSET 6.404314 0.481013 -2.550647
    CHANNELS 3 Zrotation Xrotation Yrotation
    JOINT KneeRight
    {
      OFFSET -0.473111 -39.790858 2.798307
      CHANNELS 3 Zrotation Xrotation Yrotation
      JOINT AnkleRight
      {
        OFFSET -3.156344 -36.784219 9.405604
        CHANNELS 3 Zrotation Xrotation Yrotation
        JOINT FootRight
        {
          OFFSET 0.769014 -3.825965 -14.410602
          CHANNELS 3 Zrotation Xrotation Yrotation
          End Site
          {
            OFFSET 0 0 0
          }
        }
      }
    }
  }
}
MOTION
Frames: 10
Frame Time: 0.033333
60.800172 83.035584 330.019161 -0.000000 0.000000 -6.981987 0.000000 -0.000000 6.981987 -0.000000 0.000000 0.000000 -0.000000 0.000000 0.000000 0.000000 0.000000 0.000000 -0.000000 0.000000 0.000000 -0.000000 0.000000 0.000000 -0.000000 0.000000 0.000000 -0.000000 0.000000 0.000000 0.000000 0.000000 0.000000 0.000000 0.000000 0.000000 -0.000000 0.000000 0.000000 -0.000000 0.000000 0.000000 -0.000000 0.000000 0.000000 -0.000000 0.000000 0.000000 0.000000 0.000000 0.000000 0.000000 0.000000 0.000000 0.000000 -0.000000 6.981987 -0.000000 0.000000 0.000000 -0.000000 0.000000 0.000000 0.000000 0.000000 0.000000 0.000000 -0.000000 6.981987 -0.000000 0.000000 0.000000 -0.000000 0.000000 0.000000 0.000000 0.000000 0.000000
60.802352 83.024650 329.839172 -0.133785 -0.097459 -6.682351 0.121535 0.112364 6.682118 -0.000000 0.000000 0.000000 -0.000000 0.000000 0.000000 0.000000 0.000000 0.000000 -0.000000 0.000000 0.000000 -0.000000 0.000000 0.000000 -0.059629 1.049102 0.208090 0.150858 -0.146377 -0.233577 0.000000 0.000000 0.000000 0.000000 0.000000 0.000000 -0.000000 0.000000 0.000000 -0.206251 -1.203314 -0.087954 0.771360 5.744029 -0.884946 -5.976610 -4.809889 0.733251 0.000000 0.000000 0.000000 0.000000 0.000000 0.000000 0.121535 0.112364 6.682118 -0.000000 0.000000 0.000000 -0.000000 0.000000 0.000000 0.000000 0.000000 0.000000 0.121535 0.112364 6.682118 -0.000000 0.000000 0.000000 -0.000000 0.000000 0.000000 0.000000 0.000000 0.000000
60.813726 83.013480 329.671509 -0.246528 -0.176607 -6.436034 0.225179 0.203127 6.435254 -0.000000 0.000000 0.000000 0.769408 0.863747 0.084358 0.000000 0.000000 0.000000 -0.000000 0.000000 0.000000 -0.000000 0.000000 0.000000 -0.042052 1.955955 0.369145 0.133742 -0.048435 -0.408920 0.000000 0.000000 0.000000 0.000000 0.000000 0.000000 -0.000000 0.000000 0.000000 -0.462867 -2.173573 -0.150505 1.575006 10.316559 -1.651903 -10.175933 -8.606776 0.695754 0.000000 0.000000 0.000000 0.000000 0.000000 0.000000 0.225179 0.203127 6.435254 -0.000000 0.000000 0.000000 -0.000000 0.000000 0.000000 0.000000 0.000000 0.000000 0.225179 0.203127 6.435254 -0.000000 0.000000 0.000000 -0.083353 -0.945201 0.127248 0.000000 0.000000 0.000000
60.834295 83.002074 329.516173 -0.338278 -0.237484 -6.242946 0.310451 0.272857 6.241506 -0.000000 0.000000 0.000000 0.972995 1.100186 0.104067 0.000000 0.000000 0.000000 -0.000000 0.000000 0.000000 -0.753732 -0.693094 0.268640 0.827373 3.404402 0.200684 -0.049964 0.307333 -0.528769 0.000000 0.000000 0.000000 0.000000 0.000000 0.000000 -0.000000 0.000000 0.000000 -0.768215 -2.911774 -0.187510 2.382700 13.721213 -2.273696 -13.125002 -11.344555 0.355998 0.000000 0.000000 0.000000 0.000000 0.000000 0.000000 0.310451 0.272857 6.241506 -0.000000 0.000000 0.000000 -0.000000 0.000000 0.000000 0.000000 0.000000 0.000000 0.310451 0.272857 6.241506 -0.000000 0.000000 0.000000 -0.132458 -1.928678 0.116385 0.000000 0.000000 0.000000
60.864057 82.990432 329.373162 -0.409076 -0.280122 -6.103013 0.376982 0.322019 6.100954 -0.000000 0.000000 0.000000 1.055892 1.205960 0.110975 0.000000 0.000000 0.000000 -0.000000 0.000000 0.000000 -0.948750 -0.860131 0.336382 1.216461 4.174572 0.181343 -0.401725 0.935118 -0.593217 0.000000 0.000000 0.000000 0.000000 0.000000 0.000000 -0.000000 0.000000 0.000000 -1.120949 -3.419738 -0.198270 3.169736 15.990342 -2.726779 -15.114394 -13.062468 -0.021299 0.000000 0.000000 0.000000 0.000000 0.000000 0.000000 0.376982 0.322019 6.100954 -0.000000 0.000000 0.000000 -0.000000 0.000000 0.000000 0.000000 0.000000 0.000000 0.376982 0.322019 6.100954 -0.000000 0.000000 0.000000 -0.189779 -3.299113 0.051664 0.000000 0.000000 0.000000
60.903014 82.978555 329.242478 -0.458958 -0.304550 -6.016175 0.424518 0.350966 6.013655 -0.000000 0.000000 0.000000 1.017966 1.180828 0.105679 0.000000 0.000000 0.000000 -0.000000 0.000000 0.000000 -1.115088 -0.994191 0.393473 1.666074 4.752607 0.114372 -0.925821 1.849961 -0.599558 0.000000 0.000000 0.000000 0.000000 0.000000 0.000000 -0.000000 0.000000 0.000000 -1.520000 -3.699754 -0.181558 3.916672 17.162074 -2.991690 -16.303461 -13.813234 -0.293006 0.000000 0.000000 0.000000 0.000000 0.000000 0.000000 0.424518 0.350966 6.013655 -0.000000 0.000000 0.000000 -0.000000 0.000000 0.000000 0.000000 0.000000 0.000000 0.424518 0.350966 6.013655 -0.000000 0.000000 0.000000 -0.259851 -5.112087 -0.073451 0.000000 0.000000 0.000000
60.950900 82.969554 329.118368 -0.495584 -0.289869 -5.955492 0.462842 0.339713 5.952867 -0.000000 0.000000 0.000000 1.004994 1.070288 0.113292 0.000000 0.000000 0.000000 -0.000000 0.000000 0.000000 -1.249186 -1.126624 0.440032 2.406480 5.231845 -0.062294 -1.868626 3.491588 -0.508051 0.000000 0.000000 0.000000 0.000000 0.000000 0.000000 -0.000000 0.000000 0.000000 -1.435910 -3.804902 -0.203021 3.297213 17.144734 -3.019920 -14.883682 -12.360203 0.410197 0.000000 0.000000 0.000000 0.000000 0.000000 0.000000 0.462842 0.339713 5.952867 -0.000000 0.000000 0.000000 -0.044817 -4.963697 -0.161375 0.000000 0.000000 0.000000 0.462842 0.339713 5.952867 -0.000000 0.000000 0.000000 -0.455699 -9.979930 -0.498871 0.000000 0.000000 0.000000
61.007450 82.959967 329.014252 -0.507506 -0.256949 -5.966372 0.478055 0.308299 5.963948 -0.000000 0.000000 0.000000 0.855678 0.961672 0.093016 0.000000 0.000000 0.000000 -0.000000 0.000000 0.000000 -1.344329 -1.204693 0.472393 3.071674 5.381260 -0.262900 -2.248355 4.789305 -0.440501 0.000000 0.000000 0.000000 0.000000 0.000000 0.000000 -0.000000 0.000000 0.000000 -1.915500 -3.637584 -0.128019 3.955149 16.274112 -2.893282 -14.386614 -11.230101 0.521439 0.000000 0.000000 0.000000 0.000000 0.000000 0.000000 0.478055 0.308299 5.963948 -0.000000 0.000000 0.000000 0.339478 0.868873 -0.173442 0.000000 0.000000 0.000000 0.478055 0.308299 5.963948 -0.000000 0.000000 0.000000 -0.628361 -13.642992 -0.845557 0.000000 0.000000 0.000000
61.074588 82.946733 328.919700 -0.489646 -0.224873 -6.063050 0.463160 0.275325 6.060976 -0.000000 0.000000 0.000000 -0.000000 0.000000 0.000000 0.000000 0.000000 0.000000 -0.000000 0.000000 0.000000 -1.426168 -1.229529 0.498819 3.801094 5.407114 -0.491795 -3.513096 6.145973 -0.213447 0.000000 0.000000 0.000000 0.000000 0.000000 0.000000 -0.000000 0.000000 0.000000 -2.743754 -3.143170 0.029886 5.561140 14.098229 -2.445224 -14.869883 -9.430025 0.198474 0.000000 0.000000 0.000000 0.000000 0.000000 0.000000 0.463160 0.275325 6.060976 -0.000000 0.000000 0.000000 -0.000000 0.000000 0.000000 0.000000 0.000000 0.000000 0.463160 0.275325 6.060976 -0.483737 -0.687743 -0.067452 -0.225741 -14.921360 -0.991833 0.000000 0.000000 0.000000
61.154378 82.928432 328.838752 -0.440858 -0.193723 -6.208301 0.417327 0.240257 6.206681 -0.000000 0.000000 0.000000 -0.000000 0.000000 0.000000 0.000000 0.000000 0.000000 -0.000000 0.000000 0.000000 -1.472289 -1.211023 0.512698 4.388631 5.389756 -0.672078 -4.734232 8.339717 0.016476 0.000000 0.000000 0.000000 0.000000 0.000000 0.000000 -0.000000 0.000000 0.000000 -3.801765 -2.422555 0.253747 7.510548 11.010744 -1.769136 -15.292911 -7.434852 -0.269727 0.000000 0.000000 0.000000 0.000000 0.000000 0.000000 0.417327 0.240257 6.206681 -0.000000 0.000000 0.000000 0.768691 4.868134 -0.307051 0.000000 0.000000 0.000000 0.417327 0.240257 6.206681 -0.541717 -0.679290 -0.083279 -0.154935 -14.931597 -1.043541 0.000000 0.000000 0.000000
